<svg width="233" height="84" viewBox="0 0 233 84" fill="none" xmlns="http://www.w3.org/2000/svg">
<path d="M41.5114 83.0637C64.4375 83.0637 83.0228 64.4693 83.0228 41.5319C83.0228 18.5945 64.4375 0 41.5114 0C18.5853 0 0 18.5945 0 41.5319C0 64.4693 18.5853 83.0637 41.5114 83.0637Z" fill="#ED184F"/>
<path d="M43.1996 13.6141C48.4881 13.6141 53.0018 15.2477 56.7351 18.5177C60.4683 15.2477 64.9045 13.6141 70.0381 13.6141C76.572 13.6141 81.7056 15.9482 85.4416 20.6192C88.3972 24.1992 89.7975 28.2472 89.6425 32.7603V62.8792C89.6425 65.2133 88.6297 67.0047 86.6094 68.2507C84.5864 69.4939 82.486 69.4939 80.308 68.2507C78.285 67.0075 77.2749 65.2161 77.2749 62.8792V32.7603C76.8072 29.4156 75.5619 27.3141 73.5416 26.4558C72.764 26.1457 71.5961 25.9879 70.0408 25.9879C67.0825 25.9879 65.1397 26.7659 64.2071 28.322C63.4295 29.723 62.9618 31.2015 62.8068 32.7576V45.7155C62.8068 48.0496 61.7939 49.841 59.7737 51.087C57.7507 52.3329 55.6502 52.3329 53.4723 51.087C51.4493 49.9988 50.4391 48.2074 50.4391 45.7155V32.7576C49.9715 29.4129 48.7261 27.3113 46.7059 26.453C45.9282 26.1429 44.7604 25.9851 43.2051 25.9851C40.4045 25.9851 38.5364 26.7631 37.6038 28.3192C36.6712 29.9528 36.126 31.4341 35.971 32.7548V62.8792C36.126 65.2133 35.1131 67.0047 32.9379 68.2507C30.9149 69.4939 28.8145 69.4939 26.6365 68.2507C24.6135 67.0075 23.6034 65.2161 23.6034 62.8792V32.7603C24.2261 23.1111 28.582 17.0391 36.6712 14.5472C38.6886 13.927 40.8666 13.6141 43.1996 13.6141Z" fill="white"/>
<path d="M101.933 23.2578H89.4238V63.1478H101.933V23.2578Z" fill="#ED184F"/>
<path d="M95.6865 29.4101C99.1453 29.4101 101.949 26.6048 101.949 23.1443C101.949 19.6838 99.1453 16.8785 95.6865 16.8785C92.2277 16.8785 89.4238 19.6838 89.4238 23.1443C89.4238 26.6048 92.2277 29.4101 95.6865 29.4101Z" fill="#ED184F"/>
<path d="M95.6865 13.9048C99.1453 13.9048 101.949 11.0996 101.949 7.63907C101.949 4.17857 99.1453 1.37329 95.6865 1.37329C92.2277 1.37329 89.4238 4.17857 89.4238 7.63907C89.4238 11.0996 92.2277 13.9048 95.6865 13.9048Z" fill="#ED184F"/>
<path d="M95.6865 69.2807C99.1453 69.2807 101.949 66.4754 101.949 63.0149C101.949 59.5544 99.1453 56.7491 95.6865 56.7491C92.2277 56.7491 89.4238 59.5544 89.4238 63.0149C89.4238 66.4754 92.2277 69.2807 95.6865 69.2807Z" fill="#ED184F"/>
<path d="M145.503 40.9449C144.601 40.9449 143.867 40.2139 143.867 39.3085V26.4502C143.867 24.6284 143.331 23.0557 142.296 21.771C141.261 20.4863 139.855 19.8245 138.156 19.8245C136.418 19.8245 134.926 20.4032 133.645 21.5218C132.402 22.6404 131.782 24.0469 131.782 25.747V30.9828C131.782 31.8965 131.04 32.6385 130.127 32.6385C129.214 32.6385 128.472 31.8965 128.472 30.9828V25.747C128.472 24.0497 127.852 22.6404 126.568 21.5218C125.326 20.4032 123.837 19.8245 122.099 19.8245C120.402 19.8245 119.035 20.4863 118 21.771C116.965 23.0557 116.47 24.5868 116.47 26.4502V39.3085C116.47 40.2111 115.739 40.9449 114.834 40.9449C113.932 40.9449 113.199 40.2139 113.199 39.3085V26.824C113.199 23.8836 114.026 21.483 115.723 19.6999C117.295 18.0027 119.365 17.0502 121.93 16.8425C125.364 16.5518 128.099 18.0442 130.124 21.2311C132.153 18.0414 134.884 16.5518 138.319 16.8425C140.884 17.0502 142.954 18.0027 144.568 19.6999C146.264 21.4803 147.133 23.8836 147.133 26.824V39.3085C147.139 40.2139 146.408 40.9449 145.503 40.9449Z" fill="white"/>
<path d="M152.087 40.9449C151.229 40.9449 150.534 40.2499 150.534 39.3916V18.8942C150.534 18.0359 151.229 17.3409 152.087 17.3409C152.945 17.3409 153.639 18.0359 153.639 18.8942V39.3944C153.639 40.2499 152.945 40.9449 152.087 40.9449Z" fill="white"/>
<path d="M176.343 40.9449C175.463 40.9449 174.749 40.2305 174.749 39.3501V27.1563C174.749 25.1683 174.005 23.471 172.555 22.0202C171.107 20.5694 169.45 19.8661 167.504 19.8661C165.559 19.8661 163.821 20.5694 162.37 22.0202C160.92 23.4683 160.217 25.1683 160.217 27.1563V39.3528C160.217 40.2333 159.503 40.9477 158.623 40.9477C157.743 40.9477 157.029 40.2333 157.029 39.3528V27.4858C157.029 24.4207 158.023 21.8956 160.01 19.8661C161.997 17.8366 164.479 16.801 167.501 16.801C170.482 16.801 172.964 17.8366 174.951 19.8661C176.938 21.8956 177.932 24.4207 177.932 27.4858V39.3501C177.937 40.2305 177.223 40.9449 176.343 40.9449Z" fill="white"/>
<path d="M205.958 29.2661C206.041 32.6606 204.84 35.6011 202.316 38.0875C199.792 40.5295 196.853 41.7312 193.457 41.6066C190.186 41.5235 187.372 40.2803 185.097 37.8798C182.819 35.4793 181.704 32.6219 181.704 29.3076C181.704 25.8716 182.946 22.8896 185.387 20.4447C187.828 17.9611 190.767 16.7595 194.163 16.8841C197.639 17.0086 200.536 18.4152 202.855 21.0677V10.7346C202.855 9.87624 203.55 9.18127 204.408 9.18127C205.266 9.18127 205.96 9.87624 205.96 10.7346V29.2661H205.958ZM193.501 38.5028C196.108 38.6274 198.303 37.758 200.124 35.8115C201.986 33.8651 202.855 31.6279 202.772 29.0197C202.731 26.5361 201.82 24.4235 200.124 22.6431C198.427 20.8628 196.399 19.9934 193.955 19.9934C191.473 19.9519 189.32 20.8628 187.54 22.6431C185.761 24.4235 184.892 26.5361 184.85 29.0612C184.809 31.5448 185.636 33.7405 187.333 35.6039C189.029 37.4673 191.058 38.4197 193.501 38.5028Z" fill="white"/>
<path d="M114.262 69.2253C113.675 69.2253 113.199 68.7491 113.199 68.1621V49.0298C113.199 48.4428 113.675 47.9666 114.262 47.9666C114.848 47.9666 115.324 48.4428 115.324 49.0298V68.1621C115.324 68.7491 114.848 69.2253 114.262 69.2253Z" fill="white"/>
<path d="M130.515 69.2253C129.928 69.2253 129.452 68.7491 129.452 68.1621V60.0302C129.452 58.7039 128.957 57.5715 127.988 56.6052C127.019 55.6389 125.918 55.1682 124.62 55.1682C123.322 55.1682 122.165 55.6389 121.2 56.6052C120.234 57.5715 119.763 58.7039 119.763 60.0302V68.1621C119.763 68.7491 119.287 69.2253 118.701 69.2253C118.114 69.2253 117.638 68.7491 117.638 68.1621V60.2517C117.638 58.2083 118.299 56.5249 119.625 55.1709C120.95 53.817 122.605 53.1276 124.62 53.1276C126.607 53.1276 128.262 53.817 129.588 55.1709C130.913 56.5249 131.575 58.2083 131.575 60.2517V68.1621C131.577 68.7491 131.101 69.2253 130.515 69.2253Z" fill="white"/>
<path d="M141.335 69.2254C140.674 69.2254 140.079 68.8267 139.827 68.212L134.364 54.8969C134.087 54.2241 134.583 53.4875 135.311 53.4875C135.726 53.4875 136.097 53.7367 136.254 54.1188L141.346 66.4621L146.4 54.1493C146.563 53.7478 146.953 53.4875 147.388 53.4875C148.149 53.4875 148.666 54.2628 148.373 54.9661L142.841 68.2203C142.586 68.8294 141.994 69.2254 141.335 69.2254Z" fill="white"/>
<path d="M165.041 64.0615C165.838 64.0615 166.344 64.9281 165.94 65.6175C165.37 66.5977 164.612 67.4256 163.668 68.0901C162.262 69.0841 160.715 69.5797 159.005 69.6074C156.852 69.6351 154.948 68.8626 153.293 67.2594C151.638 65.6314 150.783 63.7265 150.756 61.4893C150.7 59.1413 151.528 57.1007 153.238 55.4146C154.976 53.7034 156.991 52.9033 159.337 53.0389C161.435 53.1774 163.256 54.0329 164.8 55.6333C166.289 57.206 167.036 58.9752 167.036 60.9355V62.068H152.909C153.075 63.6406 153.736 64.9669 154.923 65.9886C156.111 67.0102 157.489 67.5335 159.091 67.5059C161.371 67.4809 163.048 66.5008 164.142 64.5848C164.324 64.2664 164.667 64.0615 165.041 64.0615ZM164.966 60.1409C164.662 58.6762 163.973 57.4911 162.896 56.5802C161.82 55.6693 160.522 55.1986 159.005 55.1709C157.489 55.1432 156.163 55.6139 155.031 56.5248C153.899 57.4358 153.21 58.6513 152.906 60.1409H164.966Z" fill="white"/>
<path d="M181.731 69.2253C181.145 69.2253 180.669 68.7491 180.669 68.1621V60.0302C180.669 58.7039 180.173 57.5715 179.205 56.6052C178.236 55.6389 177.135 55.1682 175.837 55.1682C174.539 55.1682 173.382 55.6389 172.416 56.6052C171.45 57.5715 170.98 58.7039 170.98 60.0302V68.1621C170.98 68.7491 170.504 69.2253 169.917 69.2253C169.331 69.2253 168.855 68.7491 168.855 68.1621V60.2517C168.855 58.2083 169.516 56.5249 170.842 55.1709C172.167 53.817 173.822 53.1276 175.837 53.1276C177.824 53.1276 179.479 53.817 180.804 55.1709C182.13 56.5249 182.791 58.2083 182.791 60.2517V68.1621C182.794 68.7491 182.318 69.2253 181.731 69.2253Z" fill="white"/>
<path d="M190.742 68.6439C190.742 69.1589 190.302 69.5631 189.79 69.5216C186.591 69.2641 185.003 67.6471 185.003 64.6707V49.0298C185.003 48.4428 185.479 47.9666 186.065 47.9666C186.652 47.9666 187.128 48.4428 187.128 49.0298V53.4598H189.763C190.305 53.4598 190.742 53.8973 190.742 54.44C190.742 54.9827 190.305 55.4201 189.763 55.4201H187.128V64.3107C187.128 66.3873 188.08 67.5336 189.962 67.7717C190.405 67.8271 190.742 68.1953 190.742 68.6439Z" fill="white"/>
<path d="M206.276 67.2373C204.648 68.8654 202.689 69.6683 200.425 69.5853C198.245 69.5299 196.368 68.702 194.852 67.1017C193.335 65.5013 192.588 63.5964 192.588 61.3869C192.588 59.0943 193.415 57.1063 195.045 55.4783C196.673 53.8225 198.632 53.0224 200.896 53.1027C203.077 53.1857 204.953 54.0136 206.469 55.6416C207.986 57.242 208.761 59.1469 208.761 61.3564C208.761 63.6213 207.933 65.5816 206.276 67.2373ZM200.453 67.5142C202.191 67.5973 203.655 67.0186 204.87 65.72C206.112 64.4215 206.691 62.9319 206.663 61.1931C206.608 59.5373 206.002 58.128 204.87 56.9402C203.738 55.7524 202.387 55.1737 200.785 55.1737C199.103 55.146 197.694 55.7524 196.507 56.9402C195.319 58.128 194.741 59.5346 194.713 61.2208C194.686 62.8765 195.209 64.3412 196.341 65.5816C197.473 66.8248 198.826 67.4588 200.453 67.5142Z" fill="white"/>
<path d="M211.949 69.2253H211.7C211.157 69.2253 210.72 68.7878 210.72 68.2451V54.4676C210.72 53.9249 211.157 53.4875 211.7 53.4875C212.242 53.4875 212.68 53.9249 212.68 54.4676V55.7247C213.122 54.8691 213.784 54.235 214.639 53.7644C215.01 53.5733 215.381 53.4266 215.754 53.3297C216.418 53.158 217.066 53.6481 217.066 54.3347C217.066 54.8303 216.728 55.2761 216.241 55.373C215.635 55.4949 215.118 55.7357 214.691 56.0818C214.085 56.5775 213.67 57.0205 213.449 57.3804C213.089 57.9868 212.926 58.7897 212.926 59.8114V68.2451C212.929 68.7878 212.489 69.2253 211.949 69.2253Z" fill="white"/>
<path d="M223.896 74.7186C223.149 74.7186 222.637 73.9655 222.911 73.2678L224.71 68.727L219.269 54.9467C218.992 54.2462 219.51 53.4875 220.262 53.4875C220.697 53.4875 221.09 53.7534 221.253 54.1576L226.007 65.9665L231.041 54.1078C231.202 53.7312 231.57 53.4875 231.98 53.4875C232.707 53.4875 233.2 54.2296 232.921 54.9024L224.873 74.0707C224.707 74.4639 224.322 74.7186 223.896 74.7186Z" fill="white"/>
<path d="M152.079 12.2879C152.93 12.2879 153.62 11.5975 153.62 10.7457C153.62 9.89396 152.93 9.20349 152.079 9.20349C151.227 9.20349 150.537 9.89396 150.537 10.7457C150.537 11.5975 151.227 12.2879 152.079 12.2879Z" fill="white"/>
</svg>
