<svg width="109" height="39" viewBox="0 0 109 39" fill="none" xmlns="http://www.w3.org/2000/svg">
<path d="M19.4195 38.8582C30.1446 38.8582 38.839 30.1595 38.839 19.4291C38.839 8.69869 30.1446 0 19.4195 0C8.69441 0 0 8.69869 0 19.4291C0 30.1595 8.69441 38.8582 19.4195 38.8582Z" fill="#ED184F"/>
<path d="M20.2093 6.36884C22.6833 6.36884 24.7949 7.13305 26.5413 8.66276C28.2878 7.13305 30.3631 6.36884 32.7646 6.36884C35.8213 6.36884 38.2228 7.46075 39.9706 9.64587C41.3532 11.3207 42.0083 13.2143 41.9358 15.3256V29.4156C41.9358 30.5075 41.462 31.3456 40.5169 31.9284C39.5705 32.51 38.5879 32.51 37.569 31.9284C36.6226 31.3469 36.1501 30.5088 36.1501 29.4156V15.3256C35.9313 13.761 35.3487 12.7778 34.4036 12.3763C34.0398 12.2312 33.4935 12.1574 32.7659 12.1574C31.382 12.1574 30.4731 12.5214 30.0368 13.2493C29.673 13.9047 29.4543 14.5964 29.3818 15.3243V21.3862C29.3818 22.4781 28.9079 23.3162 27.9628 23.899C27.0165 24.4819 26.0338 24.4819 25.0149 23.899C24.0686 23.39 23.596 22.552 23.596 21.3862V15.3243C23.3772 13.7597 22.7947 12.7765 21.8496 12.375C21.4858 12.2299 20.9394 12.1561 20.2119 12.1561C18.9017 12.1561 18.0278 12.5201 17.5915 13.248C17.1552 14.0122 16.9002 14.7052 16.8277 15.323V29.4156C16.9002 30.5075 16.4263 31.3456 15.4088 31.9284C14.4624 32.51 13.4798 32.51 12.4609 31.9284C11.5145 31.3469 11.042 30.5088 11.042 29.4156V15.3256C11.3333 10.8116 13.371 7.97109 17.1552 6.80534C18.099 6.5152 19.1179 6.36884 20.2093 6.36884Z" fill="white"/>
<path d="M47.6852 10.8803H41.8335V29.5412H47.6852V10.8803Z" fill="#ED184F"/>
<path d="M44.7633 13.7584C46.3813 13.7584 47.693 12.446 47.693 10.8272C47.693 9.20831 46.3813 7.89597 44.7633 7.89597C43.1452 7.89597 41.8335 9.20831 41.8335 10.8272C41.8335 12.446 43.1452 13.7584 44.7633 13.7584Z" fill="#ED184F"/>
<path d="M44.7632 6.50486C46.3813 6.50486 47.693 5.19251 47.693 3.57366C47.693 1.9548 46.3813 0.642456 44.7632 0.642456C43.1452 0.642456 41.8335 1.9548 41.8335 3.57366C41.8335 5.19251 43.1452 6.50486 44.7632 6.50486Z" fill="#ED184F"/>
<path d="M44.7633 32.4103C46.3813 32.4103 47.693 31.0979 47.693 29.4791C47.693 27.8602 46.3813 26.5479 44.7633 26.5479C43.1452 26.5479 41.8335 27.8602 41.8335 29.4791C41.8335 31.0979 43.1452 32.4103 44.7633 32.4103Z" fill="#ED184F"/>
<path d="M68.068 19.1545C67.6459 19.1545 67.3028 18.8125 67.3028 18.389V12.3737C67.3028 11.5215 67.0517 10.7857 66.5675 10.1847C66.0833 9.58373 65.4256 9.27416 64.6307 9.27416C63.8177 9.27416 63.1199 9.54487 62.5204 10.0682C61.9392 10.5914 61.6492 11.2494 61.6492 12.0447V14.4941C61.6492 14.9215 61.3022 15.2687 60.875 15.2687C60.4477 15.2687 60.1008 14.9215 60.1008 14.4941V12.0447C60.1008 11.2507 59.8108 10.5914 59.2101 10.0682C58.6288 9.54487 57.9323 9.27416 57.1192 9.27416C56.3256 9.27416 55.6861 9.58373 55.2019 10.1847C54.7177 10.7857 54.4859 11.502 54.4859 12.3737V18.389C54.4859 18.8112 54.1442 19.1545 53.7208 19.1545C53.2988 19.1545 52.9557 18.8125 52.9557 18.389V12.5486C52.9557 11.173 53.3428 10.05 54.1364 9.21587C54.8717 8.42187 55.8401 7.9763 57.0403 7.87915C58.6469 7.74315 59.926 8.4413 60.8737 9.93216C61.8226 8.44 63.1004 7.74315 64.7071 7.87915C65.9072 7.9763 66.8756 8.42187 67.6304 9.21587C68.424 10.0487 68.8305 11.173 68.8305 12.5486V18.389C68.8331 18.8125 68.4913 19.1545 68.068 19.1545Z" fill="white"/>
<path d="M71.1479 19.1545C70.7466 19.1545 70.4216 18.8294 70.4216 18.4279V8.83895C70.4216 8.43742 70.7466 8.1123 71.1479 8.1123C71.5492 8.1123 71.8742 8.43742 71.8742 8.83895V18.4291C71.8742 18.8294 71.5492 19.1545 71.1479 19.1545Z" fill="white"/>
<path d="M82.4953 19.1545C82.0836 19.1545 81.7496 18.8203 81.7496 18.4084V12.7041C81.7496 11.7741 81.4014 10.9801 80.723 10.3013C80.0459 9.62261 79.2704 9.29361 78.3603 9.29361C77.4502 9.29361 76.6371 9.62261 75.9587 10.3013C75.2803 10.9788 74.9515 11.7741 74.9515 12.7041V18.4097C74.9515 18.8216 74.6175 19.1558 74.2058 19.1558C73.7941 19.1558 73.4601 18.8216 73.4601 18.4097V12.8582C73.4601 11.4243 73.9249 10.243 74.8544 9.29361C75.784 8.34417 76.9452 7.85974 78.359 7.85974C79.7533 7.85974 80.9146 8.34417 81.8441 9.29361C82.7737 10.243 83.2385 11.4243 83.2385 12.8582V18.4084C83.2411 18.8203 82.907 19.1545 82.4953 19.1545Z" fill="white"/>
<path d="M96.3493 13.691C96.3881 15.279 95.8263 16.6546 94.6455 17.8178C93.4648 18.9602 92.0899 19.5224 90.5014 19.4641C88.9712 19.4252 87.6545 18.8436 86.5903 17.7206C85.5249 16.5976 85.0031 15.2609 85.0031 13.7105C85.0031 12.103 85.5844 10.708 86.7263 9.5643C87.8681 8.40244 89.243 7.8403 90.8316 7.89858C92.4576 7.95687 93.8131 8.61487 94.898 9.85574V5.02178C94.898 4.62025 95.223 4.29514 95.6243 4.29514C96.0256 4.29514 96.3506 4.62025 96.3506 5.02178V13.691H96.3493ZM90.5221 18.0121C91.7417 18.0704 92.7683 17.6636 93.6202 16.7531C94.4915 15.8425 94.898 14.7959 94.8592 13.5758C94.8397 12.4139 94.4138 11.4256 93.6202 10.5927C92.8266 9.75989 91.8776 9.35317 90.7345 9.35317C89.5732 9.33374 88.5659 9.75989 87.7335 10.5927C86.901 11.4256 86.4945 12.4139 86.4751 13.5952C86.4557 14.757 86.8428 15.7842 87.6364 16.6559C88.43 17.5276 89.379 17.9732 90.5221 18.0121Z" fill="white"/>
<path d="M53.4528 32.3844C53.1784 32.3844 52.9557 32.1616 52.9557 31.887V22.9367C52.9557 22.6621 53.1784 22.4393 53.4528 22.4393C53.7273 22.4393 53.95 22.6621 53.95 22.9367V31.887C53.95 32.1616 53.7273 32.3844 53.4528 32.3844Z" fill="white"/>
<path d="M61.0562 32.3844C60.7817 32.3844 60.559 32.1616 60.559 31.887V28.0828C60.559 27.4623 60.3273 26.9326 59.8742 26.4805C59.4211 26.0285 58.9058 25.8083 58.2986 25.8083C57.6914 25.8083 57.1503 26.0285 56.6985 26.4805C56.2466 26.9326 56.0265 27.4623 56.0265 28.0828V31.887C56.0265 32.1616 55.8039 32.3844 55.5294 32.3844C55.2549 32.3844 55.0323 32.1616 55.0323 31.887V28.1864C55.0323 27.2305 55.3417 26.443 55.9618 25.8096C56.5819 25.1762 57.3561 24.8537 58.2986 24.8537C59.2282 24.8537 60.0024 25.1762 60.6225 25.8096C61.2426 26.443 61.552 27.2305 61.552 28.1864V31.887C61.5533 32.1616 61.3306 32.3844 61.0562 32.3844Z" fill="white"/>
<path d="M66.1183 32.3844C65.8088 32.3844 65.5305 32.1979 65.4127 31.9103L62.8571 25.6814C62.7276 25.3666 62.9593 25.0221 63.2998 25.0221C63.494 25.0221 63.6675 25.1386 63.7413 25.3174L66.1234 31.0917L68.4874 25.3316C68.5638 25.1438 68.7464 25.0221 68.9496 25.0221C69.3056 25.0221 69.5477 25.3847 69.4105 25.7137L66.8225 31.9142C66.7034 32.1992 66.4264 32.3844 66.1183 32.3844Z" fill="white"/>
<path d="M77.2081 29.9687C77.5809 29.9687 77.8178 30.3741 77.6288 30.6967C77.3621 31.1552 77.0074 31.5425 76.5659 31.8533C75.9083 32.3183 75.1846 32.5502 74.3845 32.5631C73.3773 32.5761 72.4865 32.2147 71.7124 31.4647C70.9382 30.7031 70.5381 29.812 70.5252 28.7654C70.4993 27.667 70.8864 26.7124 71.6865 25.9236C72.4995 25.1231 73.442 24.7488 74.5398 24.8122C75.5212 24.877 76.373 25.2772 77.0954 26.0259C77.792 26.7616 78.1415 27.5893 78.1415 28.5063V29.0361H71.5324C71.6101 29.7718 71.9195 30.3923 72.4749 30.8702C73.0303 31.3482 73.675 31.593 74.4246 31.58C75.4914 31.5684 76.2759 31.1098 76.7873 30.2135C76.8728 30.0646 77.0333 29.9687 77.2081 29.9687ZM77.1731 28.1346C77.0307 27.4494 76.7083 26.895 76.2047 26.4689C75.7011 26.0427 75.0939 25.8225 74.3845 25.8096C73.675 25.7966 73.0549 26.0168 72.5254 26.443C71.9959 26.8691 71.6735 27.4377 71.5311 28.1346H77.1731Z" fill="white"/>
<path d="M85.016 32.3844C84.7416 32.3844 84.5189 32.1616 84.5189 31.887V28.0828C84.5189 27.4623 84.2871 26.9326 83.834 26.4805C83.3809 26.0285 82.8656 25.8083 82.2584 25.8083C81.6513 25.8083 81.1101 26.0285 80.6583 26.4805C80.2065 26.9326 79.9864 27.4623 79.9864 28.0828V31.887C79.9864 32.1616 79.7637 32.3844 79.4892 32.3844C79.2148 32.3844 78.9921 32.1616 78.9921 31.887V28.1864C78.9921 27.2305 79.3015 26.443 79.9216 25.8096C80.5418 25.1762 81.316 24.8537 82.2584 24.8537C83.188 24.8537 83.9622 25.1762 84.5823 25.8096C85.2024 26.443 85.5119 27.2305 85.5119 28.1864V31.887C85.5132 32.1616 85.2905 32.3844 85.016 32.3844Z" fill="white"/>
<path d="M89.2314 32.1124C89.2314 32.3533 89.0255 32.5424 88.786 32.523C87.2894 32.4025 86.5463 31.6461 86.5463 30.2537V22.9367C86.5463 22.6621 86.769 22.4393 87.0434 22.4393C87.3179 22.4393 87.5406 22.6621 87.5406 22.9367V25.0091H88.7731C89.0268 25.0091 89.2314 25.2138 89.2314 25.4676C89.2314 25.7215 89.0268 25.9262 88.7731 25.9262H87.5406V30.0853C87.5406 31.0567 87.9859 31.593 88.8663 31.7044C89.0734 31.7303 89.2314 31.9025 89.2314 32.1124Z" fill="white"/>
<path d="M96.4981 31.4544C95.7369 32.216 94.8203 32.5916 93.7613 32.5528C92.7411 32.5269 91.8634 32.1396 91.1539 31.3909C90.4444 30.6422 90.0949 29.7511 90.0949 28.7175C90.0949 27.645 90.482 26.715 91.2445 25.9534C92.0058 25.1788 92.9224 24.8045 93.9814 24.842C95.0015 24.8809 95.8793 25.2682 96.5888 26.0298C97.2982 26.7784 97.6607 27.6696 97.6607 28.7032C97.6607 29.7628 97.2736 30.6798 96.4981 31.4544ZM93.7742 31.5839C94.5873 31.6228 95.2721 31.3521 95.8405 30.7446C96.4218 30.1371 96.6923 29.4402 96.6794 28.6268C96.6535 27.8522 96.37 27.1929 95.8405 26.6373C95.311 26.0816 94.6792 25.8109 93.9296 25.8109C93.1425 25.7979 92.4835 26.0816 91.9281 26.6373C91.3727 27.1929 91.1021 27.8509 91.0892 28.6398C91.0762 29.4143 91.3209 30.0995 91.8504 30.6798C92.3799 31.2614 93.013 31.558 93.7742 31.5839Z" fill="white"/>
<path d="M99.1521 32.3844H99.0356C98.7818 32.3844 98.5773 32.1797 98.5773 31.9259V25.4806C98.5773 25.2267 98.7818 25.0221 99.0356 25.0221C99.2893 25.0221 99.4939 25.2267 99.4939 25.4806V26.0686C99.701 25.6684 100.01 25.3718 100.41 25.1516C100.584 25.0622 100.757 24.9936 100.932 24.9482C101.243 24.8679 101.546 25.0972 101.546 25.4184C101.546 25.6503 101.388 25.8588 101.16 25.9041C100.877 25.9611 100.634 26.0738 100.435 26.2357C100.152 26.4676 99.9573 26.6748 99.8538 26.8432C99.6855 27.1269 99.6091 27.5025 99.6091 27.9805V31.9259C99.6104 32.1797 99.4045 32.3844 99.1521 32.3844Z" fill="white"/>
<path d="M104.741 34.9542C104.392 34.9542 104.152 34.6019 104.28 34.2755L105.122 32.1512L102.576 25.7047C102.447 25.377 102.689 25.0221 103.041 25.0221C103.244 25.0221 103.428 25.1464 103.505 25.3355L105.729 30.8599L108.084 25.3122C108.159 25.136 108.331 25.0221 108.523 25.0221C108.863 25.0221 109.094 25.3692 108.963 25.6839L105.198 34.6511C105.12 34.835 104.94 34.9542 104.741 34.9542Z" fill="white"/>
<path d="M71.144 5.74841C71.5423 5.74841 71.8651 5.4254 71.8651 5.02695C71.8651 4.62849 71.5423 4.30548 71.144 4.30548C70.7458 4.30548 70.4229 4.62849 70.4229 5.02695C70.4229 5.4254 70.7458 5.74841 71.144 5.74841Z" fill="white"/>
</svg>
