<svg width="38" height="28" viewBox="0 0 38 28" fill="none" xmlns="http://www.w3.org/2000/svg">
<path d="M35 28C35 28 37.3333 28 37.3333 25.6667C37.3333 23.3333 35 16.3333 25.6667 16.3333C16.3333 16.3333 14 23.3333 14 25.6667C14 28 16.3333 28 16.3333 28H35ZM16.3847 25.6667C16.3674 25.6643 16.3503 25.6612 16.3333 25.6573C16.3357 25.0413 16.723 23.254 18.1067 21.644C19.3947 20.1343 21.658 18.6667 25.6667 18.6667C29.673 18.6667 31.9363 20.1367 33.2267 21.644C34.6103 23.254 34.9953 25.0437 35 25.6573L34.9813 25.662C34.9705 25.6638 34.9596 25.6654 34.9487 25.6667H16.3847ZM25.6667 11.6667C26.9043 11.6667 28.0913 11.175 28.9665 10.2998C29.8417 9.42466 30.3333 8.23768 30.3333 7C30.3333 5.76232 29.8417 4.57534 28.9665 3.70017C28.0913 2.825 26.9043 2.33333 25.6667 2.33333C24.429 2.33333 23.242 2.825 22.3668 3.70017C21.4917 4.57534 21 5.76232 21 7C21 8.23768 21.4917 9.42466 22.3668 10.2998C23.242 11.175 24.429 11.6667 25.6667 11.6667ZM32.6667 7C32.6667 7.91925 32.4856 8.8295 32.1338 9.67878C31.782 10.5281 31.2664 11.2997 30.6164 11.9497C29.9664 12.5998 29.1947 13.1154 28.3454 13.4672C27.4962 13.8189 26.5859 14 25.6667 14C24.7474 14 23.8372 13.8189 22.9879 13.4672C22.1386 13.1154 21.3669 12.5998 20.7169 11.9497C20.0669 11.2997 19.5513 10.5281 19.1995 9.67878C18.8477 8.8295 18.6667 7.91925 18.6667 7C18.6667 5.14348 19.4042 3.36301 20.7169 2.05025C22.0297 0.737498 23.8102 0 25.6667 0C27.5232 0 29.3037 0.737498 30.6164 2.05025C31.9292 3.36301 32.6667 5.14348 32.6667 7ZM16.184 16.9867C15.2506 16.6928 14.2885 16.4995 13.314 16.4103C12.7664 16.3583 12.2167 16.3326 11.6667 16.3333C2.33333 16.3333 0 23.3333 0 25.6667C0 27.223 0.777 28 2.33333 28H12.1707C11.8248 27.2716 11.6523 26.4729 11.6667 25.6667C11.6667 23.31 12.5463 20.902 14.21 18.8907C14.777 18.2047 15.4373 17.563 16.184 16.9867ZM11.48 18.6667C10.099 20.7416 9.35303 23.1742 9.33333 25.6667H2.33333C2.33333 25.06 2.716 23.2633 4.10667 21.644C5.37833 20.16 7.588 18.7133 11.48 18.669V18.6667ZM3.5 8.16667C3.5 6.31015 4.2375 4.52967 5.55025 3.21692C6.86301 1.90416 8.64348 1.16667 10.5 1.16667C12.3565 1.16667 14.137 1.90416 15.4497 3.21692C16.7625 4.52967 17.5 6.31015 17.5 8.16667C17.5 10.0232 16.7625 11.8037 15.4497 13.1164C14.137 14.4292 12.3565 15.1667 10.5 15.1667C8.64348 15.1667 6.86301 14.4292 5.55025 13.1164C4.2375 11.8037 3.5 10.0232 3.5 8.16667ZM10.5 3.5C9.26232 3.5 8.07534 3.99166 7.20017 4.86683C6.325 5.742 5.83333 6.92899 5.83333 8.16667C5.83333 9.40434 6.325 10.5913 7.20017 11.4665C8.07534 12.3417 9.26232 12.8333 10.5 12.8333C11.7377 12.8333 12.9247 12.3417 13.7998 11.4665C14.675 10.5913 15.1667 9.40434 15.1667 8.16667C15.1667 6.92899 14.675 5.742 13.7998 4.86683C12.9247 3.99166 11.7377 3.5 10.5 3.5Z" fill="white"/>
</svg>
